# xmcd
#
# Track frame offsets:
#	150
#	12150
#	22961
#	37785
#	51393
#	63612
#	82861
#	94988
#	111291
#	124174
#	139251
#	155511
#	196699
#	215157
#	225429
#
# Disc length: 3110 seconds
#
# Revision: 0
# Processed by: cddbd v1.5.2PL0 Copyright (c) Steve Scherf et al.
# Submitted via: audiograbber 1.83.01
#
DISCID=c50c240f
DTITLE=RICHARD CLAYDERMAN - THE BEST OF - CD1
DYEAR=2016
DGENRE=Blues
TTITLE0=BALLADE POUR ADELINE
TTITLE1=ROMEO AND JULIET
TTITLE2=FEELINGS
TTITLE3=LOVE STORY
TTITLE4=MARIAGE D'AMOUR
TTITLE5=FUR ELISE
TTITLE6=AVE MARIA
TTITLE7=DON'T CRY FOR ME ARGENTINA
TTITLE8=SOUVENIRS D'ENFANCE
TTITLE9=A COMME AMOUR
TTITLE10=JUST THE WAY YOU ARE
TTITLE11=TITANIC SYMPHONY
TTITLE12=THE POWER OF LOVE
TTITLE13=JARDIN SECRET
TTITLE14=LOVE IS BLUE
EXTD=
EXTT0=
EXTT1=
EXTT2=
EXTT3=
EXTT4=
EXTT5=
EXTT6=
EXTT7=
EXTT8=
EXTT9=
EXTT10=
EXTT11=
EXTT12=
EXTT13=
EXTT14=
PLAYORDER=
